<?xml version="1.0" standalone="no"?><!DOCTYPE svg PUBLIC "-//W3C//DTD SVG 1.1//EN" "http://www.w3.org/Graphics/SVG/1.1/DTD/svg11.dtd"><svg t="1496564764934" class="icon" style="" viewBox="0 0 1142 1024" version="1.1" xmlns="http://www.w3.org/2000/svg" p-id="1164" xmlns:xlink="http://www.w3.org/1999/xlink" width="223.046875" height="200"><defs><style type="text/css"></style></defs><path d="M1141.35068 39.056567c-9.628592 72.769757-18.164903 137.223495-28.913312 218.47449-126.144648-19.927238-251.600884-38.376684-377.754711-27.67417-115.460491 9.802989-227.40549 32.180975-309.124606 122.987131-150.018782 166.696715-68.391455 396.461164 158.252192 437.462994 141.115318 25.526324 283.919541 11.785617 425.447907-8.123264-5.452224 112.440656-5.764305 95.303782-10.674978 205.229439-1.073923 24.057711 4.277334 14.612696-161.648359 31.914789-176.004048 9.004431-351.879591 11.188993-520.549755-52.888413C156.54493 905.721609 30.675647 809.160327 5.17686 630.815678c-26.251451-183.594939 48.803834-331.796313 192.516761-446.127808C413.368567 13.098839 790.802019-47.27032 1141.35068 39.056567z" p-id="1165"></path></svg>