<?xml version="1.0" standalone="no"?>
<!DOCTYPE svg PUBLIC "-//W3C//DTD SVG 20010904//EN"
 "http://www.w3.org/TR/2001/REC-SVG-20010904/DTD/svg10.dtd">
<svg version="1.0" xmlns="http://www.w3.org/2000/svg"
 width="48.000000pt" height="48.000000pt" viewBox="0 0 48.000000 48.000000"
 preserveAspectRatio="xMidYMid meet">

<g transform="translate(0.000000,48.000000) scale(0.100000,-0.100000)"
fill="#000000" stroke="none">
<path d="M0 240 l0 -240 240 0 240 0 0 240 0 240 -240 0 -240 0 0 -240z m380
90 c0 -18 -7 -20 -72 -22 -40 0 -78 -1 -85 -1 -7 0 -11 -4 -10 -10 1 -6 -5
-11 -13 -12 -9 0 -14 -8 -12 -19 2 -10 -1 -15 -7 -12 -12 8 3 -50 18 -68 6 -7
9 -15 6 -17 -6 -6 40 -12 98 -13 38 -1 47 -4 47 -18 0 -16 -10 -18 -74 -18
-81 0 -109 6 -99 23 4 6 1 7 -6 2 -21 -13 -61 34 -61 72 0 40 17 76 31 68 5
-4 8 -1 7 7 -2 7 17 23 42 35 34 18 61 23 117 23 66 0 73 -2 73 -20z"/>
<path d="M220 330 c-10 -6 -2 -7 25 -3 49 7 58 13 19 13 -16 0 -36 -5 -44 -10z"/>
<path d="M330 336 c0 -2 9 -6 20 -9 11 -3 18 -1 14 4 -5 9 -34 13 -34 5z"/>
<path d="M121 244 c0 -11 3 -14 6 -6 3 7 2 16 -1 19 -3 4 -6 -2 -5 -13z"/>
</g>
</svg>
